<svg width="81" height="90" viewBox="0 0 81 90" fill="none" xmlns="http://www.w3.org/2000/svg">
<g clip-path="url(#clip0_1_152)">
<path d="M62.1789 24.0302H62.18L60.1326 22.8492L59.7323 22.6179L42.8028 12.8581L59.7323 3.09275V0L40.2294 11.2556L20.7265 0V3.09386L37.656 12.8581L18.2788 24.0291H18.281L0.000305176 34.5841V58.5165L20.7265 70.4827L40.2149 59.2304L40.2294 59.2382L40.2427 59.2304L59.7323 70.4827L80.4574 58.5165V34.5841L62.1778 24.0302H62.1789ZM40.2294 56.3979L21.9498 45.8596V37.4088L40.2294 47.9626L58.509 37.4088V45.8596L40.2294 56.3979ZM58.509 34.5841L40.2294 45.1379L21.9498 34.5841V26.1499L40.2294 36.7037L58.509 26.1499V34.5841ZM20.7265 67.6579L2.44692 57.1041V35.9964L19.5032 26.1488V47.272L37.7683 57.8181L20.7265 67.6579ZM78.0108 57.1041L59.7323 67.6579L42.6894 57.8181L60.9545 47.272V26.1488L78.0108 35.9964V57.1041Z" fill="black"/>
<path d="M41.4527 69.0703H39.0061V90H41.4527V69.0703Z" fill="black"/>
</g>
<defs>
<clipPath id="clip0_1_152">
<rect width="80.4582" height="90" fill="white" transform="translate(0.000305176)"/>
</clipPath>
</defs>
</svg>
