<svg id="Swarm_Icon" data-name="Swarm Icon" xmlns="http://www.w3.org/2000/svg" viewBox="0 0 1319.31 1341.67"><defs><style>.cls-1{opacity:0.45;}.cls-2{opacity:0.6;}.cls-3{opacity:0.3;}.cls-4{opacity:0.8;}</style></defs><title>swarm-logo</title><polygon class="cls-1" points="1125.21 136.97 1125.21 293.82 985.79 215.4 985.79 58.54 1125.21 136.97"/><polygon class="cls-2" points="985.79 215.4 985.79 372.25 1125.21 293.82 1125.21 136.97 985.79 215.4"/><polygon class="cls-3" points="67.5 1092.22 346.35 1249.07 625.21 1092.22 346.35 935.36 67.5 1092.22"/><polygon class="cls-1" points="346.35 935.36 346.35 1249.07 67.5 1092.22 67.5 778.51 346.35 935.36"/><polygon class="cls-1" points="625.21 778.51 625.21 1092.22 346.35 935.36 346.35 621.65 625.21 778.51"/><polygon class="cls-2" points="346.35 935.36 346.35 1249.07 625.21 1092.22 625.21 778.51 346.35 935.36"/><polygon class="cls-2" points="67.5 778.51 67.5 1092.22 346.35 935.36 346.35 621.65 67.5 778.51"/><polygon class="cls-4" points="654.65 407.11 794.08 485.53 933.5 407.11 794.08 328.68 654.65 407.11"/><polygon class="cls-4" points="67.5 778.51 346.35 935.36 625.21 778.51 346.35 621.65 67.5 778.51"/><polygon class="cls-3" points="691.46 1092.22 970.31 1249.07 1249.16 1092.22 970.31 935.36 691.46 1092.22"/><polygon class="cls-1" points="970.31 935.36 970.31 1249.07 691.46 1092.22 691.46 778.51 970.31 935.36"/><polygon class="cls-1" points="1249.16 778.51 1249.16 1092.22 970.31 935.36 970.31 621.65 1249.16 778.51"/><polygon class="cls-2" points="970.31 935.36 970.31 1249.07 1249.16 1092.22 1249.16 778.51 970.31 935.36"/><polygon class="cls-2" points="691.46 778.51 691.46 1092.22 970.31 935.36 970.31 621.65 691.46 778.51"/><polygon class="cls-4" points="691.46 778.51 970.31 935.36 1249.16 778.51 970.31 621.65 691.46 778.51"/><polygon class="cls-2" points="654.65 250.25 654.65 407.11 794.08 328.68 794.08 171.82 654.65 250.25"/><polygon class="cls-3" points="375.8 563.96 654.65 720.81 933.5 563.96 654.65 407.11 375.8 563.96"/><polygon class="cls-1" points="654.65 407.11 654.65 720.81 375.8 563.96 375.8 250.25 654.65 407.11"/><polygon class="cls-2" points="375.8 250.25 375.8 563.96 654.65 407.11 654.65 93.4 375.8 250.25"/><polygon class="cls-2" points="794.08 485.53 794.08 328.68 654.65 407.11 654.65 563.96 654.65 720.81 794.08 642.39 933.5 563.96 933.5 407.11 794.08 485.53"/><polygon class="cls-1" points="794.08 171.82 654.65 93.4 654.65 407.11 933.5 563.96 933.5 407.11 794.08 328.68 794.08 171.82"/><polygon class="cls-4" points="654.65 93.4 794.08 171.82 654.65 250.25 654.65 407.11 375.8 250.25 654.65 93.4"/><polygon class="cls-4" points="846.36 136.97 985.79 215.4 1125.21 136.97 985.79 58.54 846.36 136.97"/></svg>