<?xml version="1.0" encoding="utf-8"?>
<!-- Generator: Adobe Illustrator 23.1.0, SVG Export Plug-In . SVG Version: 6.00 Build 0)  -->
<svg version="1.1" id="bfd7ed38-e2c2-4ce4-aa7c-70bac4bc4918"
	 xmlns="http://www.w3.org/2000/svg" xmlns:xlink="http://www.w3.org/1999/xlink" x="0px" y="0px" viewBox="0 0 807.9 581.6"
	 style="enable-background:new 0 0 807.9 581.6;" xml:space="preserve">
<style type="text/css">
	.st0{fill:#BFC9D0;}
	.st1{fill:#818080;}
	.st2{opacity:0.1;enable-background:new    ;}
	.st3{fill:#F9E8D8;}
	.st4{fill:#FFFFFF;}
	.st5{fill:#E94E1B;}
	.st6{fill:#4A4A49;}
	.st7{fill:#1D1D1B;}
	.st8{opacity:0.2;enable-background:new    ;}
</style>
<path class="st0" d="M705.3,200.1c-29.2-21.9-75-42.5-125.6-56.7c-46.1-12.9-91-19.2-126.6-17.6l-0.2-4.1
	c36-1.6,81.4,4.7,127.9,17.7c51.1,14.3,97.4,35.2,127,57.4L705.3,200.1z"/>
<path class="st1" d="M702.2,216.9c0,19.4-4,38.5-11.9,56.2c-0.7,1.5-1.3,2.9-2.1,4.4c-33.5,68.6-116.2,97-184.8,63.6
	c-47.5-23.2-77.6-71.4-77.6-124.2c0-3.2,0.1-6.4,0.3-9.5c0.1-1.6,0.2-3.2,0.4-4.8c7.9-75.9,75.8-131,151.7-123.1
	C648.7,86.8,702.2,146.1,702.2,216.9L702.2,216.9z"/>
<path class="st2" d="M690.3,273.1c-0.7,1.5-1.3,2.9-2.1,4.4c-4,0.4-8.3,0.8-12.8,1c-3.7,0.2-7.5,0.2-11.4,0.2
	c-33.9,0-74.8-6.3-116.5-18c-46.5-13-88.6-31.3-118.4-51.3c-1-0.7-2-1.4-3-2.1c0.1-1.6,0.2-3.2,0.4-4.8c1.6,1.1,3.2,2.3,4.9,3.4
	c29.5,19.8,71.2,37.9,117.2,50.8c41.4,11.6,81.8,17.8,115.3,17.8c3.8,0,7.6-0.1,11.2-0.2C680.6,274.1,685.6,273.7,690.3,273.1z"/>
<path class="st0" d="M664.1,275.4c-33.9,0-74.8-6.3-116.5-18c-46.5-13-88.6-31.3-118.4-51.3c-30.5-20.5-44.8-40.7-40.3-56.8
	c4.5-16.2,27.2-26,64-27.6l0.2,4.1c-17.1,0.8-31.1,3.3-41.5,7.6c-10.4,4.2-16.7,10-18.6,17c-2,7.1,0.4,15.2,7.1,24.2
	c6.7,9,17.3,18.5,31.5,28.1c29.5,19.8,71.2,37.9,117.2,50.8c41.4,11.6,81.8,17.8,115.3,17.8c3.8,0,7.6-0.1,11.2-0.2
	c17.1-0.8,31.1-3.3,41.5-7.6c10.4-4.2,16.7-10,18.6-17c3.6-12.7-7.2-29.1-30.2-46.4l2.5-3.3c11.9,8.9,20.6,17.6,26.1,26
	c5.8,9,7.7,17.3,5.6,24.8c-4.5,16.2-27.2,26-64,27.6C671.8,275.3,668,275.4,664.1,275.4z"/>
<circle class="st3" cx="567.7" cy="52.2" r="1.6"/>
<circle class="st0" cx="357.6" cy="119.8" r="2.7"/>
<circle class="st0" cx="351.8" cy="226.4" r="5.4"/>
<circle class="st0" cx="674.8" cy="61.7" r="3.6"/>
<circle class="st0" cx="802" cy="210.6" r="5.8"/>
<circle class="st0" cx="756.5" cy="117.6" r="2.5"/>
<circle class="st0" cx="453.2" cy="85.5" r="3.9"/>
<circle class="st0" cx="747.8" cy="198.8" r="2.5"/>
<circle class="st0" cx="364.5" cy="302.4" r="3.1"/>
<circle class="st0" cx="427.3" cy="345.7" r="3.4"/>
<polygon class="st0" points="525.2,6.6 518.6,6.6 518.6,0 515,0 515,6.6 508.3,6.6 508.3,10.2 515,10.2 515,16.9 518.6,16.9 
	518.6,10.2 525.2,10.2 "/>
<polygon class="st0" points="679.3,366.2 675.2,366.2 675.2,362 672.9,362 672.9,366.2 668.8,366.2 668.8,368.4 672.9,368.4 
	672.9,372.6 675.2,372.6 675.2,368.4 679.3,368.4 "/>
<polygon class="st0" points="775.6,344.8 772.5,344.8 772.5,341.7 770.9,341.7 770.9,344.8 767.7,344.8 767.7,346.5 770.9,346.5 
	770.9,349.6 772.5,349.6 772.5,346.5 775.6,346.5 "/>
<circle class="st2" cx="566.1" cy="108.7" r="11.6"/>
<circle class="st2" cx="476.9" cy="193.7" r="11.6"/>
<circle class="st2" cx="605.2" cy="310.3" r="11.6"/>
<circle class="st2" cx="566.1" cy="211.6" r="11.6"/>
<circle class="st2" cx="482.7" cy="275.5" r="11.6"/>
<circle class="st2" cx="628.4" cy="149.4" r="11.6"/>
<circle class="st2" cx="666.9" cy="228" r="11.6"/>
<circle class="st4" cx="566.1" cy="161" r="15.3"/>
<path class="st5" d="M566.1,138.8c-12,0-21.6,9.7-21.6,21.6s21.6,51.2,21.6,51.2s21.6-39.2,21.6-51.2S578.1,138.8,566.1,138.8z
	 M566.1,171c-5.5,0-10-4.5-10-10s4.5-10,10-10c5.5,0,10,4.5,10,10S571.7,171,566.1,171L566.1,171L566.1,171z"/>
<circle class="st4" cx="482.7" cy="226.4" r="15.3"/>
<path class="st5" d="M482.7,204.2c-12,0-21.6,9.7-21.6,21.6s21.6,51.2,21.6,51.2s21.6-39.2,21.6-51.2
	C504.4,213.9,494.7,204.2,482.7,204.2z M482.7,236.4c-5.5,0-10-4.5-10-10s4.5-10,10-10c5.5,0,10,4.5,10,10
	C492.8,232,488.3,236.4,482.7,236.4L482.7,236.4L482.7,236.4z"/>
<circle class="st4" cx="666.9" cy="178.9" r="15.3"/>
<path class="st5" d="M666.9,156.7c-12,0-21.6,9.7-21.6,21.6c0,0,0,0,0,0c0,12,21.6,51.2,21.6,51.2s21.6-39.2,21.6-51.2
	C688.6,166.4,678.9,156.7,666.9,156.7L666.9,156.7z M666.9,188.9c-5.5,0-10-4.5-10-10s4.5-10,10-10c5.5,0,10,4.5,10,10
	C677,184.5,672.5,188.9,666.9,188.9L666.9,188.9z"/>
<circle class="st4" cx="566.1" cy="58.1" r="15.3"/>
<path class="st5" d="M566.1,35.9c-12,0-21.6,9.7-21.6,21.6c0,12,21.6,51.2,21.6,51.2s21.6-39.2,21.6-51.2
	C587.8,45.6,578.1,35.9,566.1,35.9z M566.1,68.1c-5.5,0-10-4.5-10-10s4.5-10,10-10c5.5,0,10,4.5,10,10S571.7,68.1,566.1,68.1
	L566.1,68.1L566.1,68.1z"/>
<circle class="st4" cx="605.2" cy="261.2" r="15.3"/>
<path class="st6" d="M605.2,239.1c-12,0-21.6,9.7-21.6,21.6c0,12,21.6,51.2,21.6,51.2s21.6-39.2,21.6-51.2
	C626.8,248.8,617.1,239.1,605.2,239.1L605.2,239.1z M605.2,271.3c-5.5,0-10-4.5-10-10c0-5.5,4.5-10,10-10c5.5,0,10,4.5,10,10
	C615.2,266.8,610.7,271.3,605.2,271.3L605.2,271.3z"/>
<circle class="st4" cx="476.9" cy="143.6" r="15.3"/>
<path class="st6" d="M476.9,121.4c-12,0-21.6,9.7-21.6,21.6s21.6,51.2,21.6,51.2s21.6-39.2,21.6-51.2S488.9,121.4,476.9,121.4z
	 M476.9,153.6c-5.5,0-10-4.5-10-10s4.5-10,10-10c5.5,0,10,4.5,10,10S482.5,153.6,476.9,153.6C476.9,153.6,476.9,153.6,476.9,153.6z"
	/>
<circle class="st4" cx="628.4" cy="100.8" r="15.3"/>
<path class="st6" d="M628.4,78.6c-12,0-21.6,9.7-21.6,21.6c0,12,21.6,51.2,21.6,51.2s21.6-39.2,21.6-51.2
	C650,88.3,640.3,78.6,628.4,78.6z M628.4,110.8c-5.5,0-10-4.5-10-10s4.5-10,10-10c5.5,0,10,4.5,10,10S633.9,110.8,628.4,110.8
	L628.4,110.8L628.4,110.8L628.4,110.8z"/>
<polygon class="st5" points="188.9,569.7 201,568.3 201.5,520.7 183.5,522.7 "/>
<path class="st7" d="M225.8,577l-38.3,4.3l0,0l-1.7-14.8l0,0l23.5-2.7C217.5,562.9,224.9,568.8,225.8,577L225.8,577L225.8,577z"/>
<polygon class="st5" points="63.6,569 75.8,569 81.7,521.7 63.6,521.7 "/>
<path class="st7" d="M99.5,580.3l-38.5,0l0,0l0-14.9l0,0l23.6,0C92.8,565.4,99.5,572.1,99.5,580.3L99.5,580.3L99.5,580.3z"/>
<path class="st7" d="M151.5,357.5l7,22.8l38,82.2l10,78l-23,1l-14-72l-48-52l-42,136l-19-2c0,0,16-176,38-194
	C98.5,357.5,134.5,340.5,151.5,357.5z"/>
<circle class="st5" cx="120.5" cy="234.7" r="24.6"/>
<path class="st0" d="M154,362c0,0,3-102-39-95S90.5,372.5,90.5,372.5s9,18,31-2S154,362,154,362z"/>
<polygon class="st8" points="96,310 105.9,347.9 121,362.9 100,356 "/>
<path class="st5" d="M154.4,405.1c-5.2-1.9-7.9-7.7-6-12.9c0.2-0.6,0.5-1.1,0.7-1.6l-23.4-27l18.4-2.4l19.4,26
	c4.6,3.1,5.9,9.4,2.8,14C163.7,405.2,158.7,406.7,154.4,405.1L154.4,405.1z"/>
<path class="st0" d="M125.9,287.8l2.6,51.7l31,40l-13,10l-42-42c0,0-15-51-4-66c4.1-5.6,8.7-7.2,12.7-6.9
	C120.2,275.2,125.6,280.8,125.9,287.8z"/>
<path class="st7" d="M117.6,260.5c0.4-0.4,0.5-1,0.1-1.4c-0.1-0.1-0.1-0.1-0.2-0.2c-6.7-4.2-8.8-13-4.6-19.7c1.4-2.3,3.5-4.2,6-5.4
	c7.2-3.4,17-0.8,22.3-7.4c2.2-2.9,3-6.5,2.3-10.1c-1.2-6.2-5.8-10.9-11.1-14.1c-19.1-11.6-44-5.4-55.5,13.7
	c-4.6,7.6-6.6,16.6-5.6,25.5c0.7,6,2.5,12.8-1,17.6c-3.1,4.3-9.1,5.1-14.3,6.2c-11.2,2.3-22,7.6-29.6,16.1s-11.6,20.5-9.4,31.7
	s11.5,21,22.8,22.8c9.2,1.4,18.7-2.5,25.4-8.9s11-15,13.7-23.9c3.2-10.6,4.5-22,10.2-31.4c5.6-9.2,17.8-15.8,27.3-11
	C116.8,260.8,117.3,260.8,117.6,260.5L117.6,260.5z"/>
<path class="st6" d="M308,581.6H1c-0.6,0-1-0.4-1-1s0.4-1,1-1h307c0.6,0,1,0.4,1,1S308.6,581.6,308,581.6z"/>
</svg>
