<?xml version="1.0" encoding="utf-8"?>
<!-- Generator: Adobe Illustrator 23.1.0, SVG Export Plug-In . SVG Version: 6.00 Build 0)  -->
<svg version="1.1" id="aac55e20-4295-4738-859e-026cde4431f5"
	 xmlns="http://www.w3.org/2000/svg" xmlns:xlink="http://www.w3.org/1999/xlink" x="0px" y="0px" viewBox="0 0 727.2 478.4"
	 style="enable-background:new 0 0 727.2 478.4;" xml:space="preserve">
<style type="text/css">
	.st0{fill:#E94E1B;}
	.st1{fill:#4A4A49;}
	.st2{fill:#818080;}
	.st3{fill:#1D1D1B;}
	.st4{opacity:0.2;enable-background:new    ;}
	.st5{fill:#977763;}
	.st6{fill:#BFC9D0;}
</style>
<path class="st0" d="M329.9,68.7c-3-0.7-5.9-1.4-8.8-2.1l-19-4.7l-3.7,14.7c0,0,10,2.3,10,2.5c5.6,1.4,6.6,5.1,6.4,8l-6.4,25.8
	c0.5,0.1,1,0.3,1.4,0.5l-1.5-0.4l-9,36.1c-0.8,2.6-3.6,4.1-6.2,3.3l0,0l0,0c0.1,0.2-10-2.5-10-2.5l-6.8,15.8l17.9,4.5
	c3.4,0.8,6.6,1.7,9.8,2.5l0.6-0.1l13.8,3.4l-0.6,0.3c3.7,1,7.3,1.9,11,2.8l0.7-0.4l13.8,3.4l-0.6,0.1c23.5,4.4,41.2,2.6,48.6-18.6
	c6-17.1-0.3-27-12.7-33.4c9-2.1,15.8-8,17.6-20.2l0.2-0.1c2.5-16.7-10.2-25.7-27.6-31.7 M354.9,74.3c-3.6-0.9-7.3-1.7-11-2.6
	 M364.7,154.2c-4.2,17.1-33.1,7.9-42.4,5.5l7.6-30.3C339.2,131.7,369.2,136.3,364.7,154.2L364.7,154.2z M369,109.8
	c-3.9,15.6-27.9,7.6-35.6,5.7l6.8-27.5c7.8,1.9,32.8,5.5,28.7,21.8H369z"/>
<path class="st1" d="M339.2,254.5c-70.3,0-127.2-57-127.2-127.2S268.9,0,339.2,0s127.2,57,127.2,127.2
	C466.3,197.5,409.4,254.4,339.2,254.5z M339.2,3.4c-68.4,0-123.8,55.4-123.8,123.8S270.8,251,339.2,251S463,195.6,463,127.2l0,0
	C462.9,58.9,407.5,3.5,339.2,3.4z M367.5,76.6c13.5,4.9,30.2,13.6,27.3,33l-0.1,0.9l-0.2,0.1c-1.7,9.8-6.7,16.4-14.9,19.5
	c12,7.6,15.2,18.6,10,33.5c-8.2,23.5-29.2,23.5-48.9,20h0.6l-17.1-4.2l-0.7,0.4c-2.6-0.6-5.1-1.3-7.7-2l0.6-0.4l-17.1-4.2l-0.6,0.1
	c-0.7-0.2-1.3-0.3-2-0.5c-2-0.5-4-1.1-6.2-1.6l-19.9-5l8.2-19l1.4,0.4c2,0.5,4,1.1,5.8,1.5l-0.2-0.4l4.5,1.4
	c1.7,0.6,3.6-0.4,4.2-2.1l0,0l8.6-34.5l0,0l6.8-27.3c0.1-3.2-1.5-5.2-5.1-6.1l-3.8-1l0.1-0.1c-1.8-0.4-4.1-1-6.2-1.5l-1.7-0.4
	l4.5-18.1l20.7,5.2c2.3,0.6,4.7,1.1,7.1,1.7 M342.7,69.8c1,0.2,1.9,0.5,2.9,0.7c1.6,0.4,3.2,0.7,4.8,1.1 M328,70.1l-1.6-0.4
	c-3-0.7-6-1.4-8.8-2.1l-17.3-4.3l-2.8,11.4c2.8,0.6,5.6,1.3,8.4,2.1c5.2,1.3,7.9,4.9,7.7,9.7v0.3l-6,24.2l0,0l-0.4,1.5h-0.1v0.1h0.1
	l-9,36.1c-1.1,3.6-4.8,5.6-8.4,4.5h-0.1l0,0c-1.3-0.2-3.7-0.8-8.6-2.1l-5.4,12.6l16,4c2.1,0.5,4.2,1.1,6.2,1.6
	c1.2,0.3,2.4,0.6,3.6,0.9l1.6,0.4l0.6-0.1l10.4,2.6l-0.6,0.3l1.7,0.5c3.6,1,7.3,1.9,10.9,2.8l1.7,0.4l0.7-0.4l10.5,2.6l-0.6,0.2
	l1.6,0.3c27,5.1,40.5,0,46.7-17.5c5.1-14.5,1.3-24.5-11.8-31.3l-4.1-2.1l4.5-1c9.4-2.2,14.7-8.3,16.3-18.8l0.1-0.9l0.1-0.1
	c1.5-13.1-6.7-22-26.6-28.9l-1.5-0.5 M353,75.7l-1.7-0.4c-2.1-0.5-4.3-1-6.4-1.5c-1.5-0.4-3.1-0.7-4.6-1.1l-1.7-0.4 M344.6,165.3
	c-8.3,0-17.3-2.4-23.1-3.9c-1-0.3-1.9-0.5-2.7-0.7l-1.7-0.4l8.4-33.6l1.7,0.4c0.9,0.2,2.1,0.5,3.4,0.8c9.5,2.1,25.4,5.7,31.1,15
	c1.7,2.7,2.4,5.8,1.9,9h0.1l-0.5,2.1c-0.8,3.6-3.1,6.8-6.3,8.6C353.5,164.6,349.2,165.3,344.6,165.3L344.6,165.3z M321.3,157.8
	c0.3,0.1,0.7,0.2,1.1,0.3c8,2.1,24.5,6.4,32.9,1.5c2.1-1.2,3.7-3.2,4.5-5.6l0.2-0.9c0.8-2.9,0.4-5.9-1.1-8.5
	c-4.9-8-20.6-11.5-28.9-13.4c-0.6-0.1-1.2-0.3-1.8-0.4L321.3,157.8z M350.8,120.3c-6.8,0-14-1.9-18.7-3.2c-0.9-0.2-1.6-0.4-2.3-0.6
	l-1.7-0.4l7.6-30.8l1.7,0.4c0.8,0.2,1.7,0.4,2.8,0.6C348,88,361,90.9,366,98.9c1.6,2.5,2.2,5.5,1.8,8.5h0.1l-0.4,2.1
	c-0.8,3.5-2.9,6.5-6,8.3C358.2,119.6,354.5,120.4,350.8,120.3L350.8,120.3z M332.3,113.6c0.2,0.1,0.5,0.1,0.7,0.2
	c6.9,1.8,19.8,5.3,26.8,1.1c1.8-1,3.2-2.7,3.9-4.6l0.4-1.6c0.8-2.7,0.5-5.6-1-8c-4.2-6.8-16.8-9.6-23.6-11.1
	c-0.4-0.1-0.8-0.2-1.2-0.3L332.3,113.6z"/>
<path class="st0" d="M404.7,227.2c3.2-4.5,9.5-5.6,14-2.4c0.8,0.6,1.5,1.2,2.1,2l33.8-11.5l-4.7,18l-31.4,8.2
	c-4.6,3.1-10.9,1.9-14-2.7C402.1,235.3,402.2,230.7,404.7,227.2L404.7,227.2z"/>
<path class="st0" d="M670.4,476.9c2.5-26.9,9.4-53.1,20.4-77.7c3.1-6.9,6.4-13.6,10.1-20.1c0.9-1.7-1.6-3.2-2.6-1.5
	c-13.4,23.9-22.8,49.8-27.8,76.7c-1.4,7.5-2.4,15.1-3.1,22.7C667.3,478.8,670.3,478.8,670.4,476.9L670.4,476.9z"/>
<circle class="st0" cx="708.2" cy="364.9" r="19"/>
<path class="st0" d="M672.4,477.4c1.6-17.4,6.1-34.5,13.2-50.4c2-4.4,4.2-8.8,6.6-13c0.3-0.5,0.1-1.1-0.4-1.3
	c-0.5-0.2-1-0.1-1.3,0.3c-8.7,15.5-14.8,32.3-18,49.7c-0.9,4.9-1.6,9.8-2,14.7C670.3,478.7,672.3,478.7,672.4,477.4L672.4,477.4z"/>
<circle class="st0" cx="696.9" cy="404.8" r="12.3"/>
<path class="st0" d="M669.9,476.3c-9.4-14.7-16.4-30.9-20.6-47.9c-1.2-4.7-2.1-9.5-2.8-14.3c-0.1-0.5-0.6-0.9-1.1-0.8
	s-0.9,0.5-0.8,1.1c2.7,17.5,8.2,34.5,16.4,50.3c2.3,4.4,4.8,8.7,7.5,12.9C669.1,478.5,670.6,477.3,669.9,476.3L669.9,476.3z"/>
<circle class="st0" cx="644.5" cy="403.9" r="12.3"/>
<path class="st0" d="M571.3,298.5c3.1-4.6,1.8-10.9-2.9-13.9c-0.5-0.3-1-0.6-1.6-0.8l2.6-35.6l-16.2,9.1v32.5
	c-1.9,5.3,0.9,11,6.2,12.9C563.9,304.1,568.8,302.4,571.3,298.5L571.3,298.5z"/>
<path class="st2" d="M567.3,160l4.4,113.4l-18-1l-4-119l3.8-1.8c4.8-2.3,10.6-0.2,12.9,4.6C566.9,157.4,567.2,158.7,567.3,160z"/>
<polygon class="st0" points="511.6,466.2 499.4,466.2 493.5,418.9 511.6,418.9 "/>
<path class="st3" d="M490.6,462.7h23.6l0,0v14.9l0,0h-38.5l0,0l0,0C475.7,469.4,482.4,462.7,490.6,462.7L490.6,462.7z"/>
<polygon class="st0" points="613.6,451.6 602.5,456.7 577.3,416.3 593.7,408.7 "/>
<path class="st3" d="M593.1,457.2l21.5-9.9l0,0l6.3,13.5l0,0l-35,16.2l0,0l0,0C582.4,469.5,585.6,460.7,593.1,457.2z"/>
<path class="st3" d="M482.5,311.9l12.6,144.3l17-2l12.6-131.8l69.4,125.8l18-5c0,0-57.9-173.3-62.4-187.8c-4.9-15.9-44-22-44-22
	l-1.5-1.5C487.4,254.5,480.7,283.8,482.5,311.9z"/>
<circle class="st0" cx="549.9" cy="114.5" r="24.6"/>
<path class="st2" d="M565.3,161.9l-17.1,89c0,0-25.9-5.2-35.2-11.4c-3.7-2.5-7-5-9.8-7.4c-0.5-0.5-1.1-0.9-1.6-1.3
	c-4.6-4-7.5-6.9-7.5-6.9s1.5-7.2,3.3-15.8c2-9.6,4.5-20.9,5.7-25.5c2.8-10.1,12.2-21.9,19.5-29.9c5.4-5.9,13.7-8.4,21.5-6.4
	l13.3,3.4C562.9,151.1,566.3,156.5,565.3,161.9z"/>
<path class="st4" d="M524,200.8c0,0-9.2,19.1-22.3,30c-4.6-4-7.5-6.9-7.5-6.9s1.5-7.2,3.3-15.8C508.5,202.2,519.9,198.6,524,200.8z"
	/>
<path class="st2" d="M540.3,165.9c-0.9-0.5-1.9-0.8-2.8-1.1c-4.1-1.1-8.4-0.1-11.5,2.7L472,207l-43,14.4l7.8,18.3l64-15.6l42.4-37.7
	c5.1-4.9,5.3-12.9,0.4-18C542.6,167.3,541.5,166.5,540.3,165.9z"/>
<path class="st3" d="M551.3,138.9c3.5-5.2,6.3-12.5,2.4-17.5c-3.8-4.9-11.3-4.2-17.1-6.4c-8.1-3-12.8-12.5-11.3-21.1
	s8.3-15.6,16.5-18.5s17.3-2,25.3,1.4c9.8,4.1,18.3,12,21.8,22.1s1.6,22.1-5.7,29.8c-7.9,8.3-20.2,10.5-31.6,10.4"/>
<path class="st3" d="M589.9,109.9c1,5.6,7.1,8.8,12.8,9.5s11.5-0.2,17,1.3c9.7,2.6,16.1,11.9,19.6,21.3s5.1,19.5,9.6,28.4
	s13.4,16.8,23.4,15.9c-5.2,13.2-20.2,19.7-33.4,14.4c-7.1-2.8-12.6-8.7-15-16c-3.7-11.3,0.5-24.8-5.9-34.8
	c-3.5-5.5-9.7-8.8-15.6-11.7s-12.1-5.9-16.1-11.1c-4-5.3-4.8-13.6,0.1-18"/>
<path class="st1" d="M709.5,478.1H389.2c-0.7,0-1.2-0.5-1.2-1.2s0.5-1.2,1.2-1.2l0,0h320.3c0.7,0,1.2,0.5,1.2,1.2
	S710.1,478.1,709.5,478.1L709.5,478.1z"/>
<path class="st1" d="M321.5,478.1H1.2c-0.7,0-1.2-0.5-1.2-1.2s0.5-1.2,1.2-1.2l0,0h320.3c0.7,0,1.2,0.5,1.2,1.2
	S322.1,478.1,321.5,478.1z"/>
<polygon class="st5" points="205.8,465.1 217.5,461.5 209.2,414.6 191.9,419.9 "/>
<path class="st3" d="M243.5,465.5l-36.8,11.3l0,0l-4.4-14.2l0,0l22.6-6.9C232.7,453.2,241.1,457.6,243.5,465.5L243.5,465.5
	L243.5,465.5z"/>
<polygon class="st5" points="101.8,465.4 114.1,465.4 119.9,418.1 101.8,418.1 "/>
<path class="st3" d="M137.7,476.8H99.2l0,0v-14.9l0,0h23.6C131,461.9,137.7,468.6,137.7,476.8L137.7,476.8L137.7,476.8z"/>
<path class="st5" d="M104.9,308.3c-3.8-3.3-4.2-9.1-0.8-12.9c0.4-0.4,0.7-0.8,1.2-1.1l9.5-119.7l19.3,4.8l-15.5,116.8
	c2.9,4.2,1.9,9.9-2.3,12.8C112.8,311.4,108.1,311.2,104.9,308.3z"/>
<circle class="st5" cx="150.6" cy="104.6" r="24.6"/>
<path class="st6" d="M117.1,177c-5.8-8-6-19,0.3-26.7c4.1-5,11-9,22.4-9c30.5,0,42.1,24.2,42.1,24.2s12.6,23.2,5.3,44.2
	s-7.4,23.2-7.4,23.2l-48.4-4.2C131.4,228.7,139.5,207.8,117.1,177z"/>
<path class="st6" d="M102.1,197.9l10.4-34.1c2.6-8.6,11.8-13.5,20.4-10.8c0.9,0.3,1.8,0.7,2.7,1.1l0,0c7.7,4,10.9,13.2,7.5,21.1
	l-13.3,30.2L102.1,197.9z"/>
<path class="st0" d="M178.8,227.6l41.1,212.7l-22.1,6.3l-53.8-140l-24.2,143.2L96.6,453c0,0-10.2-189.5,34.8-224.3L178.8,227.6z"/>
<path class="st5" d="M234,205.5c-0.4,0.4-0.7,0.9-1,1.3l-49.5,2.4l-9.5-29.1l-16.6,7.9l15.6,43.4l61.3-12c3.9,4.3,10.6,4.6,14.8,0.7
	c4.3-3.9,4.6-10.6,0.7-14.8c-3.9-4.3-10.6-4.6-14.8-0.7C234.5,204.9,234.2,205.2,234,205.5L234,205.5z"/>
<path class="st6" d="M149.9,168.5c-1.1-9,5.4-17.1,14.3-18.1c1-0.1,2-0.1,2.9-0.1l0,0c8.6,0.6,15.3,7.7,15.3,16.3v33L154,204
	L149.9,168.5z"/>
<path class="st3" d="M156,129.4c-3.7,0-6.5-3.9-6.4-7.6s2.6-6.9,5.6-9.1s6.5-3.5,9.8-5.1s6.6-3.6,8.7-6.6c2.5-4.1,2.9-9.1,1-13.5
	c-1.9-4.3-5.2-7.9-9.3-10.2c-6.2-3.6-13.4-4.7-20.4-3.2c-6.9,1.5-17.2,5.7-21.2,11.5L119.6,97c-4.3,5.2-1,12.8,1.7,19
	s8.2,10.8,14.6,13c6.4,2.1,13.3,2.3,19.8,0.6"/>
<path class="st3" d="M133.6,91.2c-1.8-2.9-4.9-4.7-8.2-5.8c-13.5-4.5-28,2.8-32.5,16.3c-0.7,2.2-1.2,4.5-1.3,6.7
	c-0.3,6.3,1.6,12.5,2.8,18.7c1.2,6.2,1.4,13.1-2,18.4c-2.6,4-7,6.6-11.3,8.8c-3.6,1.8-7.5,3.5-11.5,3.2s-8-3.5-7.9-7.5
	c-1.3,2.9-2.2,5.9-2.7,9.1c-0.3,3.2,0.5,6.6,2.8,8.8c3.3,3.2,8.6,3,13.1,2.3c9.9-1.5,19.8-4.3,27.6-10.5s13-16.5,10.9-26.2
	c-0.9-4.1-2.9-7.8-4.5-11.6s-2.9-8-2.1-12.1c0.9-4.3,3.6-7.9,7.5-10c3.8-2,8.3-2.7,12.5-1.9c2.8,0.5,6.3,1.2,8-1.1
	c0.9-1.5,0.9-3.4-0.1-4.8s-2.2-2.6-3.6-3.6"/>
</svg>
