<?xml version="1.0" encoding="utf-8"?>
<!-- Generator: Adobe Illustrator 23.1.0, SVG Export Plug-In . SVG Version: 6.00 Build 0)  -->
<svg version="1.1" id="f23abd52-b008-4a1c-94d1-771ddef2e3a4"
	 xmlns="http://www.w3.org/2000/svg" xmlns:xlink="http://www.w3.org/1999/xlink" x="0px" y="0px" viewBox="0 0 873.1 736.5"
	 style="enable-background:new 0 0 873.1 736.5;" xml:space="preserve">
<style type="text/css">
	.st0{fill:#3C3C3B;}
	.st1{fill:#DD720F;}
	.st2{fill:#EDEDED;}
	.st3{fill:#E94E1B;}
	.st4{fill:#C6C6C6;}
	.st5{fill:#F6F6F6;}
</style>
<path class="st0" d="M203.3,629.8h38.9c2.7-15.3,2.7-31,0-46.3h-38.9C207.7,598.6,207.7,614.7,203.3,629.8z"/>
<path class="st1" d="M192,631.4h38.9c2.7-15.3,2.7-31,0-46.3H192C196.4,600.2,196.4,616.3,192,631.4z"/>
<path class="st2" d="M671.7,257.8c-45.3,0-82-36.7-82-82s36.7-82,82-82s82,36.7,82,82l0,0l0,0C753.6,221,716.9,257.7,671.7,257.8z"
	/>
<path class="st3" d="M105.4,602.4c-0.5,0-0.9-0.1-1.4-0.2l-14.4-3.1c-3.5-0.8-5.7-4.2-5-7.7l26.2-120.2c0.8-3.5,4.2-5.7,7.7-5
	l14.4,3.1c3.5,0.8,5.7,4.2,5,7.7c0,0,0,0,0,0l-26.2,120.2C111.1,600.2,108.4,602.4,105.4,602.4L105.4,602.4z"/>
<path class="st4" d="M107.6,469.5L98,519c-0.9,3.1,0.8,6.3,3.8,7.3l21.3,7.2c3.1,1.1,6.5-0.6,7.6-3.8c0.1-0.4,0.2-0.8,0.3-1.1
	l6.9-51.5c0.7-3.2-1.3-6.4-4.6-7.1l-18.4-5.1C111.5,464.2,108.3,466.3,107.6,469.5z"/>
<path class="st3" d="M191.6,602.4c-3.1,0-5.7-2.1-6.3-5.1L159,477.1c-0.8-3.5,1.5-7,5-7.7c0,0,0,0,0,0l14.4-3.1c3.5-0.8,7,1.5,7.7,5
	l26.2,120.2c0.8,3.5-1.5,7-5,7.7l-14.4,3.1C192.6,602.3,192.1,602.4,191.6,602.4z"/>
<path class="st4" d="M189.4,469.5L199,519c0.9,3.1-0.8,6.3-3.8,7.3l-21.3,7.2c-3.1,1.1-6.5-0.6-7.6-3.8c-0.1-0.4-0.2-0.8-0.3-1.1
	l-6.9-51.5c-0.7-3.2,1.3-6.4,4.6-7.1l18.4-5.1C185.5,464.2,188.7,466.3,189.4,469.5z"/>
<circle class="st2" cx="355.7" cy="36.8" r="14"/>
<circle class="st2" cx="346.7" cy="258.8" r="25"/>
<circle class="st1" cx="822.7" cy="298.8" r="6"/>
<circle class="st5" cx="828.7" cy="44.8" r="6"/>
<circle class="st5" cx="738.7" cy="411.8" r="6"/>
<circle class="st1" cx="564.7" cy="38.8" r="6"/>
<path class="st4" d="M657.7,151.8c-8.3,0-15-6.7-15-15s6.7-15,15-15s15,6.7,15,15l0,0l0,0C672.7,145.1,665.9,151.8,657.7,151.8z
	 M657.7,123.8c-7.2,0-13,5.8-13,13s5.8,13,13,13s13-5.8,13-13l0,0C670.7,129.6,664.8,123.8,657.7,123.8z"/>
<path class="st4" d="M629.7,189.8c-6.1,0-11-4.9-11-11s4.9-11,11-11s11,4.9,11,11l0,0l0,0C640.7,184.9,635.7,189.8,629.7,189.8z
	 M629.7,169.8c-5,0-9,4-9,9c0,5,4,9,9,9s9-4,9-9C638.7,173.8,634.6,169.8,629.7,169.8L629.7,169.8L629.7,169.8z"/>
<path class="st4" d="M691.7,242.8c-6.1,0-11-4.9-11-11s4.9-11,11-11s11,4.9,11,11l0,0l0,0C702.7,237.9,697.7,242.8,691.7,242.8z
	 M691.7,222.8c-5,0-9,4-9,9s4,9,9,9s9-4,9-9l0,0C700.7,226.8,696.6,222.8,691.7,222.8z"/>
<path class="st4" d="M671.7,208.8c-68.4,0-122-14.5-122-33c0-10.8,15.9-20,44.8-26.1l0.4,2c-27.5,5.7-43.2,14.5-43.2,24.1
	c0,16.8,55,31,120,31s120-14.2,120-31c0-9.6-15.8-18.4-43.3-24.2l0.4-2c29,6,44.9,15.3,44.9,26.1
	C793.7,194.3,740.1,208.8,671.7,208.8z"/>
<path class="st2" d="M610.1,526c-2.8,0-5.6,0-8.3-0.1l0.1-2c4,0.1,8,0.2,12,0.1l0,2C612.6,526,611.3,526,610.1,526z M625.9,525.5
	l-0.1-2c4-0.2,8-0.6,11.9-1l0.2,2C633.9,525,629.8,525.3,625.9,525.5z M589.8,525.2c-4-0.3-8-0.7-12-1.2l0.2-2
	c3.9,0.5,7.9,0.9,11.9,1.2L589.8,525.2z M649.8,523l-0.3-2c3.9-0.6,7.9-1.3,11.8-2.1l0.4,2C657.7,521.7,653.8,522.4,649.8,523
	L649.8,523z M565.9,522.3c-3.9-0.7-7.9-1.4-11.8-2.3l0.4-2c3.9,0.8,7.8,1.6,11.7,2.3L565.9,522.3z M673.4,518.3l-0.5-1.9
	c3.9-1,7.7-2,11.5-3.1l0.6,1.9C681.2,516.3,677.3,517.4,673.4,518.3L673.4,518.3z M542.3,517.2c-3.9-1-7.8-2.2-11.6-3.4l0.6-1.9
	c3.8,1.2,7.6,2.3,11.5,3.3L542.3,517.2z M696.5,511.5l-0.7-1.9c3.7-1.3,7.5-2.7,11.2-4.2l0.7,1.9
	C704.1,508.8,700.3,510.2,696.5,511.5L696.5,511.5z M519.3,509.9c-3.8-1.4-7.5-2.9-11.2-4.4l0.8-1.8c3.7,1.5,7.4,3,11.1,4.4
	L519.3,509.9z M718.8,502.5l-0.8-1.8c3.6-1.6,7.2-3.4,10.7-5.2l0.9,1.8C726.1,499.1,722.4,500.9,718.8,502.5z M497.1,500.6
	c-3.6-1.7-7.2-3.5-10.8-5.4l0.9-1.8c3.5,1.9,7.1,3.7,10.7,5.4L497.1,500.6z M740.2,491.6l-1-1.7c3.4-2,6.9-4,10.2-6.1l1.1,1.7
	C747.2,487.5,743.7,489.6,740.2,491.6L740.2,491.6z M475.8,489.2c-3.4-2-6.9-4.2-10.2-6.4l1.1-1.7c3.3,2.2,6.7,4.3,10.1,6.4
	L475.8,489.2z M760.5,478.8l-1.1-1.6c3.2-2.3,6.5-4.6,9.6-7.1l1.2,1.6C767.1,474.1,763.8,476.5,760.5,478.8L760.5,478.8z
	 M455.7,475.9c-3.2-2.3-6.5-4.8-9.6-7.3l1.2-1.6c3.1,2.5,6.3,4.9,9.5,7.2L455.7,475.9z M779.6,464.1l-1.3-1.5c3-2.6,6-5.2,9-7.9
	l1.4,1.5C785.7,458.8,782.7,461.5,779.6,464.1L779.6,464.1z M436.9,460.9c-3-2.6-6-5.4-8.9-8.1l1.4-1.4c2.9,2.7,5.8,5.5,8.8,8.1
	L436.9,460.9z M797.3,447.7l-1.4-1.4c2.8-2.8,5.5-5.8,8.2-8.7l1.5,1.3C802.9,441.9,800.1,444.9,797.3,447.7L797.3,447.7z
	 M419.5,444.2c-2.8-2.9-5.5-5.9-8.1-8.9l1.5-1.3c2.6,3,5.3,6,8,8.8L419.5,444.2z M813.4,429.9l-1.5-1.3c2.5-3.1,5-6.2,7.4-9.4
	l1.6,1.2C818.5,423.6,816,426.8,813.4,429.9L813.4,429.9z M403.7,426.1c-2.5-3.1-4.9-6.4-7.2-9.6l1.6-1.2c2.3,3.2,4.7,6.4,7.2,9.5
	L403.7,426.1z M827.8,410.6l-1.7-1.1c2.2-3.3,4.4-6.7,6.5-10l1.7,1C832.3,403.8,830.1,407.3,827.8,410.6L827.8,410.6z M389.7,406.5
	c-2.2-3.3-4.3-6.8-6.3-10.2l1.7-1c2,3.4,4.1,6.8,6.3,10.1L389.7,406.5z M840.5,390l-1.8-1c1.9-3.5,3.8-7,5.5-10.6l1.8,0.9
	C844.3,382.9,842.4,386.5,840.5,390L840.5,390z M377.5,385.8c-1.9-3.5-3.7-7.1-5.4-10.8l1.8-0.9c1.7,3.6,3.5,7.2,5.3,10.7
	L377.5,385.8z M851.1,368.4l-1.8-0.8c1.6-3.6,3.1-7.4,4.5-11.1l1.9,0.7C854.3,361,852.7,364.7,851.1,368.4L851.1,368.4z
	 M367.2,364.1c-1.5-3.7-3-7.4-4.4-11.2l1.9-0.7c1.4,3.7,2.8,7.5,4.3,11.1L367.2,364.1z M859.8,345.9l-1.9-0.6
	c1.2-3.8,2.4-7.6,3.5-11.4l1.9,0.5C862.2,338.2,861,342.1,859.8,345.9L859.8,345.9z M359,341.5c-1.2-3.8-2.3-7.7-3.3-11.6l1.9-0.5
	c1,3.8,2.1,7.7,3.3,11.5L359,341.5z M866.3,322.7l-1.9-0.5c0.9-3.9,1.7-7.8,2.4-11.7l2,0.4C868,314.8,867.2,318.8,866.3,322.7
	L866.3,322.7z M352.9,318.2c-0.8-3.9-1.6-7.9-2.2-11.8l2-0.3c0.6,3.9,1.4,7.9,2.2,11.7L352.9,318.2z M870.7,299l-2-0.3
	c0.5-3.9,1-7.9,1.4-11.9l2,0.2C871.7,291,871.2,295.1,870.7,299L870.7,299z M349,294.4c-0.5-4-0.9-8-1.2-12l2-0.1
	c0.3,4,0.7,8,1.1,11.9L349,294.4z M872.8,275l-2-0.1c0.2-4,0.3-8,0.3-11.9h2C873.1,267,873,271,872.8,275L872.8,275z M347.2,270.4
	c-0.1-2.5-0.1-5-0.1-7.4c0-1.5,0-3.1,0-4.6l2,0c0,1.5,0,3,0,4.6c0,2.5,0,4.9,0.1,7.4L347.2,270.4z M871.1,260.2c0-4-0.2-8-0.4-11.9
	l2-0.1c0.2,4,0.4,8,0.4,12L871.1,260.2z M349.6,246.5l-2-0.1c0.2-4,0.6-8,1-12l2,0.2C350.2,238.5,349.9,242.5,349.6,246.5z
	 M869.8,236.4c-0.4-3.9-0.9-7.9-1.5-11.9l2-0.3c0.6,4,1.1,8,1.5,11.9L869.8,236.4z M352.2,222.7l-2-0.3c0.6-4,1.3-7.9,2.1-11.9
	l2,0.4C353.5,214.9,352.8,218.8,352.2,222.7z M866.3,212.7c-0.8-3.9-1.6-7.8-2.6-11.7l1.9-0.5c0.9,3.9,1.8,7.8,2.6,11.8L866.3,212.7
	z M356.9,199.3l-1.9-0.5c1-3.9,2-7.8,3.2-11.6l1.9,0.6C359,191.6,357.9,195.5,356.9,199.3z M860.6,189.5c-1.1-3.8-2.3-7.6-3.6-11.4
	l1.9-0.7c1.3,3.8,2.5,7.6,3.7,11.5L860.6,189.5z M363.8,176.4l-1.9-0.7c1.3-3.8,2.8-7.6,4.3-11.3l1.9,0.8
	C366.6,168.9,365.1,172.7,363.8,176.4z M852.9,166.9c-1.5-3.7-3-7.4-4.6-11l1.8-0.8c1.6,3.6,3.2,7.4,4.7,11.1L852.9,166.9z
	 M372.8,154.2l-1.8-0.8c1.7-3.6,3.4-7.3,5.3-10.8l1.8,0.9C376.2,147,374.5,150.6,372.8,154.2L372.8,154.2z M843.1,145.2
	c-1.8-3.5-3.7-7.1-5.6-10.5l1.7-1c2,3.5,3.9,7,5.7,10.6L843.1,145.2z M383.8,132.9l-1.7-1c2-3.5,4.1-6.9,6.3-10.3l1.7,1.1
	C387.8,126.1,385.8,129.5,383.8,132.9L383.8,132.9z M831.3,124.4c-2.1-3.4-4.3-6.7-6.6-10l1.6-1.1c2.3,3.3,4.5,6.6,6.6,10
	L831.3,124.4z M396.6,112.8l-1.6-1.2c2.3-3.3,4.7-6.5,7.2-9.7l1.6,1.2C401.3,106.3,398.9,109.5,396.6,112.8z M817.7,104.8
	c-2.4-3.2-4.9-6.3-7.5-9.3l1.5-1.3c2.6,3.1,5.1,6.2,7.5,9.4L817.7,104.8z M411.3,93.9l-1.5-1.3c2.6-3,5.3-6.1,8-9l1.5,1.4
	C416.5,87.9,413.9,90.9,411.3,93.9z M802.4,86.5c-2.7-2.9-5.5-5.8-8.3-8.6l1.4-1.4c2.8,2.8,5.6,5.7,8.3,8.7L802.4,86.5z M427.6,76.4
	l-1.4-1.4c2.9-2.8,5.8-5.6,8.8-8.2l1.3,1.5C433.4,70.9,430.4,73.6,427.6,76.4L427.6,76.4z M785.4,69.6c-2.9-2.7-6-5.3-9-7.8l1.3-1.5
	c3.1,2.5,6.1,5.2,9.1,7.9L785.4,69.6z M445.4,60.5l-1.3-1.6c3.1-2.5,6.3-5,9.5-7.4l1.2,1.6C451.7,55.5,448.5,58,445.4,60.5z
	 M767,54.4c-3.2-2.4-6.4-4.7-9.7-7l1.1-1.7c3.3,2.3,6.6,4.6,9.8,7L767,54.4z M464.6,46.3l-1.1-1.7c3.3-2.2,6.7-4.4,10.1-6.5l1,1.7
	C471.3,41.9,467.9,44.1,464.6,46.3L464.6,46.3z M747.3,40.9c-3.4-2.1-6.9-4.1-10.3-6.1l1-1.7c3.5,1.9,7,4,10.4,6.1L747.3,40.9z
	 M485,33.9l-1-1.8c3.5-1.9,7.1-3.8,10.7-5.5l0.9,1.8C492,30.1,488.5,32,485,33.9L485,33.9z M726.4,29.3c-3.6-1.8-7.2-3.5-10.8-5.1
	l0.8-1.8c3.7,1.6,7.3,3.3,10.9,5.1L726.4,29.3z M506.4,23.4l-0.8-1.8c3.7-1.6,7.4-3.1,11.1-4.5l0.7,1.9
	C513.8,20.3,510,21.8,506.4,23.4z M704.5,19.6c-3.7-1.4-7.5-2.8-11.3-4.1l0.6-1.9c3.8,1.3,7.6,2.7,11.4,4.1L704.5,19.6z M528.7,14.9
	l-0.6-1.9c3.8-1.2,7.7-2.4,11.5-3.5l0.5,1.9C536.3,12.5,532.5,13.7,528.7,14.9z M681.8,12c-3.8-1.1-7.7-2.1-11.6-3l0.5-1.9
	c3.9,0.9,7.8,1.9,11.7,3L681.8,12z M551.7,8.6l-0.4-1.9c3.9-0.9,7.9-1.7,11.8-2.4l0.4,2C559.5,6.9,555.6,7.7,551.7,8.6L551.7,8.6z
	 M658.5,6.5c-3.9-0.7-7.9-1.4-11.8-1.9l0.3-2c4,0.6,8,1.2,11.9,1.9L658.5,6.5z M575.3,4.3l-0.3-2c4-0.5,8-1,12-1.3l0.2,2
	C583.2,3.3,579.2,3.8,575.3,4.3L575.3,4.3z M634.9,3.2c-3.9-0.4-7.9-0.7-11.9-0.8l0.1-2c4,0.2,8,0.5,12,0.9L634.9,3.2z M599.1,2.2
	l-0.1-2c3.7-0.2,7.4-0.2,11.1-0.2l0.9,0l0,2l-0.9,0C606.4,2,602.7,2.1,599.1,2.2L599.1,2.2z"/>
<path class="st2" d="M384.6,368.8c9.4-11.3,19.9-22,32.8-29s28.5-10.2,42.5-6c10.5,3.1,19.5,10,27.8,17.2
	c17,14.7,32.7,31.6,52.7,41.7s46.5,12.1,63.5-2.6c13.5-11.6,19.2-31.7,35.3-39.3c15.9-7.5,34.3,0.6,50.4,7.5
	c21.9,9.4,44.5,17,67.6,22.6c15.7,3.8,31.8,6.7,47.8,5.2s32.1-7.9,42.6-20.2"/>
<path class="st3" d="M308.1,312.5h40.4c2.8-15.9,2.8-32.2,0-48.1h-40.4C312.7,280.1,312.7,296.8,308.1,312.5z"/>
<path class="st3" d="M684.1,188.5h40.4c2.8-15.9,2.8-32.2,0-48.1h-40.4C688.7,156.1,688.7,172.8,684.1,188.5z"/>
<rect x="315.7" y="279.8" class="st5" width="27" height="3"/>
<rect x="315.7" y="286.8" class="st5" width="27" height="3"/>
<rect x="692.7" y="151.8" class="st5" width="27" height="3"/>
<rect x="692.7" y="165.8" class="st5" width="27" height="3"/>
<rect x="692.7" y="158.8" class="st5" width="27" height="3"/>
<rect y="734.2" class="st0" width="324" height="2.2"/>
<circle class="st3" cx="148.7" cy="401.5" r="53.5"/>
<path class="st0" d="M140.2,734.9h-14.8c-3.6,0-6.5-2.9-6.5-6.5v-123c0-3.6,2.9-6.5,6.5-6.5h14.8c3.6,0,6.5,2.9,6.5,6.5v123
	C146.7,732,143.8,734.9,140.2,734.9z"/>
<path class="st0" d="M169.4,734.9h-14.8c-3.6,0-6.5-2.9-6.5-6.5v-123c0-3.6,2.9-6.5,6.5-6.5h14.8c3.6,0,6.5,2.9,6.5,6.5v123
	C175.9,732,173,734.9,169.4,734.9z"/>
<path class="st4" d="M181.6,619.3h-67.1c-3.6,0-6.5-2.9-6.5-6.5V470.3c0-3.6,2.9-6.5,6.5-6.5h67.1c3.6,0,6.5,2.9,6.5,6.5v142.5
	C188.1,616.4,185.2,619.3,181.6,619.3z"/>
<path class="st0" d="M174.6,378.9c-0.6-2.5-2.6-4.3-5.1-4.6c-2.8-0.3-5.5,0.8-7.3,2.9c-2.1,2.3-3.2,5.1-4.6,7.8
	c-1.6,2.8-3.6,4.8-6.8,5.4c-6.5,1.2-12.1-3.4-16.5-7.6c-5.1-4.9-9.7-10.3-13.7-16.1c-3.9-5.5-7.8-11.5-9.2-18.2
	c-1.4-5.8,0.7-11.8,5.2-15.6c10.3-8.5,24.6-5,36.7-4.6c7.1,0.2,14.2-0.7,20.2-4.7c5.1-3.3,9-8.5,9.1-14.8c0-1.9-3-1.9-3,0
	c-0.1,5.6-3.9,10-8.5,12.7c-5.6,3.3-11.9,3.9-18.3,3.7c-12.5-0.4-26.4-3.5-37.3,4.6c-4.7,3.3-7.5,8.7-7.6,14.4
	c-0.1,6.7,3.1,13.1,6.5,18.6c3.7,5.9,8,11.5,12.7,16.7c4.5,4.9,9.5,10.4,15.8,12.8c3.1,1.2,6.4,1.4,9.6,0.5c3.3-1.1,6-3.4,7.6-6.5
	c1.6-2.8,2.7-6.3,5.4-8.3c1.9-1.4,5.7-1.5,6.2,1.4C172,381.6,174.9,380.8,174.6,378.9L174.6,378.9z"/>
<circle class="st1" cx="570.7" cy="397.8" r="6"/>
<path class="st0" d="M560.1,446.5h40.4c2.8-15.9,2.8-32.2,0-48.1h-40.4C564.7,414.1,564.7,430.8,560.1,446.5z"/>
<rect x="567.7" y="416.8" class="st5" width="27" height="3"/>
<path class="st0" d="M193.9,425.2l-0.1-2c3.7-0.1,7-0.3,9.5-2.1c1.4-1.1,2.3-2.7,2.4-4.5c0.1-1.1-0.3-2.2-1.2-2.9
	c-1.6-1.4-4.3-0.9-6.2-0.1l-1.7,0.8l3.2-23.2l2,0.3l-2.7,19.7c2.6-0.8,5-0.4,6.7,1c1.3,1.1,2,2.8,1.9,4.5c-0.1,2.4-1.3,4.6-3.2,6.1
	C201.3,425,197.2,425.1,193.9,425.2z"/>
<rect x="177.6" y="393.1" class="st0" width="10.8" height="2"/>
</svg>
